<?xml version="1.0" standalone="no"?>
<!DOCTYPE svg PUBLIC "-//W3C//DTD SVG 20010904//EN"
 "http://www.w3.org/TR/2001/REC-SVG-20010904/DTD/svg10.dtd">
<svg version="1.0" xmlns="http://www.w3.org/2000/svg"
 width="1080.000000pt" height="1080.000000pt" viewBox="0 0 1080.000000 1080.000000"
 preserveAspectRatio="xMidYMid meet">
<metadata>
Created by potrace 1.11, written by Peter Selinger 2001-2013
</metadata>
<g transform="translate(0.000000,1080.000000) scale(0.100000,-0.100000)"
fill="#000000" stroke="none">
<path d="M5460 10253 c-14 -20 -29 -42 -35 -48 -5 -6 -14 -18 -20 -27 -10 -17
-138 -195 -152 -213 -4 -6 -28 -39 -52 -75 -25 -36 -47 -67 -50 -70 -4 -3 -28
-39 -56 -80 -27 -41 -58 -85 -69 -97 -11 -13 -15 -23 -10 -23 5 0 4 -4 -2 -8
-6 -4 -42 -54 -79 -112 -38 -58 -83 -128 -102 -157 -18 -28 -33 -56 -33 -62 0
-6 -4 -11 -8 -11 -5 0 -19 -19 -31 -42 -12 -24 -36 -68 -52 -98 -44 -78 -143
-276 -168 -335 -12 -27 -26 -59 -31 -70 -41 -86 -143 -382 -181 -525 -15 -54
-13 -46 -27 -95 -6 -22 -13 -51 -16 -65 -7 -37 -12 -57 -34 -145 -16 -62 -73
-336 -96 -462 -2 -10 -7 -38 -12 -63 -5 -25 -9 -49 -10 -55 0 -5 -4 -21 -7
-35 -4 -14 -9 -42 -12 -64 -3 -21 -7 -41 -9 -45 -2 -3 -7 -31 -11 -61 -4 -30
-9 -58 -11 -61 -2 -3 -6 -26 -9 -50 -3 -24 -7 -51 -10 -59 -2 -8 -6 -35 -9
-60 -4 -25 -8 -56 -10 -70 -3 -14 -7 -47 -11 -75 -3 -27 -12 -95 -20 -150 -8
-55 -17 -122 -20 -150 -3 -27 -8 -63 -10 -80 -2 -16 -7 -57 -10 -90 -4 -33 -8
-71 -10 -85 -8 -54 -21 -167 -30 -260 -3 -36 -9 -81 -11 -100 -6 -36 -7 -49
-19 -210 -4 -52 -8 -104 -10 -115 -1 -11 -3 -42 -4 -69 0 -27 -3 -47 -6 -44
-21 21 -195 541 -211 631 -2 17 -7 33 -9 37 -2 3 -7 29 -11 56 -3 27 -8 58
-10 69 -18 81 -23 378 -11 545 11 146 16 207 21 237 3 16 8 48 11 73 7 54 26
165 41 245 8 43 71 319 90 390 15 58 31 123 39 155 3 8 7 26 11 40 l6 25 -23
-25 c-13 -14 -42 -48 -64 -75 -22 -28 -43 -51 -47 -53 -5 -2 -8 -10 -8 -17 0
-7 -4 -15 -9 -17 -10 -4 -62 -69 -178 -223 -46 -60 -87 -115 -93 -122 -5 -7
-10 -17 -10 -23 0 -5 -4 -10 -10 -10 -5 0 -10 -6 -10 -14 0 -8 -4 -16 -8 -18
-11 -4 -93 -140 -154 -253 -64 -120 -318 -638 -318 -649 0 -2 -17 -39 -37 -82
-20 -43 -37 -81 -38 -84 0 -3 -8 -21 -17 -40 -10 -19 -26 -60 -38 -90 -11 -30
-25 -64 -30 -75 -43 -91 -136 -376 -165 -505 -43 -189 -54 -241 -59 -270 -3
-19 -8 -46 -11 -60 -3 -14 -8 -41 -11 -60 -3 -19 -7 -43 -10 -53 -3 -10 -7
-32 -10 -50 -4 -35 -11 -81 -18 -112 -4 -21 -16 -101 -21 -145 -2 -14 -10 -79
-19 -145 -17 -123 -21 -156 -31 -285 -4 -41 -9 -79 -12 -84 -4 -5 -1 -6 7 -1
9 6 11 4 5 -4 -4 -7 -9 -36 -11 -64 -4 -67 -4 -413 0 -492 5 -84 17 -236 22
-260 2 -11 7 -40 10 -65 3 -25 7 -56 10 -70 2 -14 7 -41 10 -60 3 -19 9 -51
14 -70 5 -19 11 -46 14 -60 8 -46 37 -155 50 -190 8 -19 14 -39 15 -45 2 -14
32 -108 40 -120 3 -5 6 -14 6 -20 0 -5 8 -27 18 -49 9 -21 17 -40 17 -43 0
-23 183 -384 215 -423 6 -8 15 -22 18 -30 6 -18 118 -180 162 -235 167 -213
319 -369 500 -515 44 -35 82 -67 85 -70 3 -4 12 -10 20 -13 8 -4 35 -22 60
-41 112 -85 449 -276 487 -276 7 0 13 -4 13 -9 0 -5 10 -11 23 -14 19 -4 108
-39 172 -67 81 -35 343 -106 495 -134 14 -3 36 -7 49 -10 13 -3 51 -8 84 -11
33 -3 63 -8 67 -10 36 -22 586 -22 704 1 10 2 44 6 75 10 31 3 58 8 61 9 3 2
26 6 50 10 131 19 444 108 567 162 21 9 40 17 43 18 63 19 390 186 435 222 6
5 35 24 65 42 80 49 270 191 270 202 0 5 4 9 9 9 28 0 300 272 409 410 46 58
92 114 101 126 10 12 20 25 22 30 2 5 35 56 73 114 85 127 257 460 272 525 1
6 12 34 23 64 23 57 90 270 97 311 3 13 13 60 24 105 55 240 75 526 57 835 -4
69 -9 141 -12 160 -7 56 -16 122 -21 155 -3 17 -7 44 -9 60 -10 89 -88 424
-170 730 -22 82 -23 86 -45 180 -15 64 -19 83 -25 120 -3 17 -8 37 -11 46 -2
10 -7 30 -9 45 -2 16 -6 40 -9 54 -2 14 -8 48 -12 75 -4 28 -9 57 -10 65 -9
45 -26 250 -39 480 -12 202 -24 360 -31 395 -2 11 -6 40 -9 65 -3 25 -8 56
-11 70 -3 14 -8 36 -10 49 -34 180 -128 434 -183 493 -12 12 -21 26 -21 30 0
16 -95 129 -198 236 l-102 107 4 -100 c27 -575 26 -852 -4 -1015 -5 -30 -11
-66 -14 -80 -2 -14 -12 -54 -21 -90 -9 -36 -19 -72 -21 -80 -5 -21 -51 -179
-62 -215 -55 -171 -187 -444 -234 -483 -23 -19 -40 -18 -44 3 -11 62 -16 125
-20 250 -6 184 -19 403 -29 473 -3 17 -7 49 -10 70 -19 128 -38 243 -47 282
-5 25 -12 59 -15 75 -7 48 -83 354 -105 425 -25 82 -77 239 -88 265 -4 11 -18
45 -30 75 -29 72 -131 276 -181 361 -21 37 -39 72 -39 78 0 6 -4 11 -10 11 -5
0 -10 5 -10 11 0 6 -13 30 -30 54 -16 24 -30 46 -30 49 0 3 -31 57 -70 121
-38 64 -70 120 -70 125 0 6 -3 10 -8 10 -4 0 -13 13 -19 28 -7 15 -31 55 -53
89 -22 34 -40 65 -40 68 0 4 -7 13 -15 21 -13 13 -14 8 -14 -38 1 -61 -9 -272
-16 -338 -2 -25 -7 -72 -10 -105 -4 -33 -13 -89 -21 -125 -9 -36 -17 -72 -19
-80 -26 -123 -131 -333 -264 -525 -73 -107 -160 -225 -165 -225 -6 0 -96 118
-96 126 0 2 -18 29 -40 59 -22 30 -40 57 -40 60 0 3 -9 15 -20 27 -10 11 -26
36 -35 54 -8 18 -21 39 -28 46 -22 23 -113 231 -140 318 -44 147 -59 199 -61
223 -2 13 -5 28 -8 33 -3 5 -9 32 -12 59 -4 28 -9 59 -11 70 -6 27 -17 128
-21 195 -6 78 -5 432 1 510 10 142 31 300 50 390 3 14 8 39 10 55 3 17 21 95
41 175 19 80 37 153 39 163 2 9 6 21 9 25 3 5 7 19 10 33 7 36 66 252 73 269
4 8 7 17 8 20 8 25 29 97 31 105 11 45 59 204 66 218 16 31 -7 18 -32 -20z"/>
</g>
</svg>
